HIERARCHY
ROOT pelvis
{
  OFFSET 0 100 0
  CHANNELS 6 Xposition Yposition Zposition Zrotation Xrotation Yrotation
  JOINT pelvis_right_femur
  {
    OFFSET -10.78128 -3.44521 -0.5502486
    CHANNELS 3 Zrotation Xrotation Yrotation
    JOINT right_femur_tibia
    {
      OFFSET -0.8047443 -44.0398 -0.1307829
      CHANNELS 3 Zrotation Xrotation Yrotation
      JOINT right_tibia_foot
      {
        OFFSET 3.006224 -47.83518 -5
        CHANNELS 3 Zrotation Xrotation Yrotation
        End Site
        {
          OFFSET 0 -5 15
        }
      }
    }
  }
  JOINT pelvis_left_femur
  {
    OFFSET 10.78128 -3.44521 -0.5502486
    CHANNELS 3 Zrotation Xrotation Yrotation
    JOINT left_femur_tibia
    {
      OFFSET 0.8047443 -44.0398 -0.1307829
      CHANNELS 3 Zrotation Xrotation Yrotation
      JOINT left_tibia_foot
      {
        OFFSET -4.370144 -48.10324 -4.275266
        CHANNELS 3 Zrotation Xrotation Yrotation
        End Site
        {
          OFFSET 0 -5 15
        }
      }
    }
  }
  JOINT pelvis_spine1
  {
    OFFSET 0 6.468898 -3.129235
    CHANNELS 3 Zrotation Xrotation Yrotation
    JOINT spine1
    {
      OFFSET 0 23.15396 4.99043
      CHANNELS 3 Zrotation Xrotation Yrotation
      JOINT spine2
      {
        OFFSET 0 20.79997 -5.064912
        CHANNELS 3 Zrotation Xrotation Yrotation
        JOINT neck
        {
          OFFSET 0 14.38658 9.616178
          CHANNELS 3 Zrotation Xrotation Yrotation
          End Site
          {
            OFFSET 0 20 0
          }
        }
      }
      JOINT right_manubrium
      {
        OFFSET -5.722621 16.35077 3.967754
        CHANNELS 3 Zrotation Xrotation Yrotation
        JOINT right_clavicle
        {
          OFFSET -13.16364 1.694482 -4.693211
          CHANNELS 3 Zrotation Xrotation Yrotation
          JOINT right_humerus
          {
            OFFSET -28.5034 -0.3100689 -2.792744
            CHANNELS 3 Zrotation Xrotation Yrotation
            JOINT right_radius
            {
              OFFSET -25.15693 0.02248979 -1.271978
              CHANNELS 3 Zrotation Xrotation Yrotation
              End Site
              {
                OFFSET -15 0 0
              }
            }
          }
        }
      }
      JOINT left_manubrium
      {
        OFFSET 5.722621 16.35077 3.967754
        CHANNELS 3 Zrotation Xrotation Yrotation
        JOINT left_clavicle
        {
          OFFSET 13.16364 1.694482 -4.693211
          CHANNELS 3 Zrotation Xrotation Yrotation
          JOINT left_humerus
          {
            OFFSET 29.39168 -1.063119 -2.237045
            CHANNELS 3 Zrotation Xrotation Yrotation
            JOINT left_radius
            {
              OFFSET 24.59957 -0.9528479 0.9047498
              CHANNELS 3 Zrotation Xrotation Yrotation
              End Site
              {
                OFFSET 15 -0 -0
              }
            }
          }
        }
      }
    }
  }
}
MOTION
Frames: 17
Frame Time: 0.0416666666667
29.67827 99.61446 284.6593 -0.4045302 -1.255215 -1.570726 2.782333 9.333331 8.330738 -0 36.71455 -0 7.554247 -13.31213 -2.279208 1.35357 -31.97379 -4.340198 -0 27.11289 -0 -9.960699 -9.387762 17.27035 0.5705135 -7.377597 8.563578 -2.139901 10.29075 -1.917311 1.882462 20.30422 5.088452 1.129088 -17.14481 7.012022 1.966809 -20.87984 10.67058 79.48076 19.94062 -5.36694 -0 0 23.94812 -26.8158 11.93564 15.48217 2.118522 -12.50903 -2.157732 -92.59853 21.58824 27.69864 0 0 -9.485239 -4.698952 5.635428 19.68655
30.81626 100.2119 292.0699 -0.3772937 -1.186489 -1.094052 1.566739 7.161623 6.975789 -0 43.64226 -0 8.197075 -11.384 -4.025811 0.05865596 -28.83992 -5.559639 -0 28.92679 -0 -8.996793 -10.56111 16.47818 0.2796938 -8.267822 8.281029 -2.027181 10.30481 -1.857522 2.06315 20.73723 4.954722 1.063647 -16.92208 7.155653 2.460228 -20.0747 10.37616 80.18794 19.9444 -6.211996 -0 0 22.45241 -26.50083 11.95744 15.00023 1.758763 -12.32305 -2.203938 -91.95114 22.22956 26.74091 0 0 -9.297792 -4.783948 6.064893 19.63832
32.01529 101.0571 299.0389 -0.3171027 -1.030005 -0.000352479 1.824944 2.779476 5.785059 -0 51.41087 -0 8.576944 -8.842516 -5.756606 -1.236618 -24.94677 -6.609877 -0 29.48796 -0 -7.890656 -12.53361 15.63631 0.1029938 -9.123684 7.377389 -1.947269 10.40246 -2.142937 2.149979 21.31169 4.917383 0.9456263 -16.60101 7.358881 3.062183 -19.22771 10.19473 81.27724 20.24571 -7.322915 -0 0 20.47832 -25.83678 12.11018 14.32667 1.281032 -12.53751 -2.418727 -90.74604 22.96928 24.85594 0 0 -9.551078 -4.631018 6.57609 19.26988
33.08188 102.3787 305.4002 -0.2653015 -0.8869634 0.9922813 1.907666 -2.085499 4.6534 -0 57.65107 -0 9.062994 -6.88729 -7.843489 -2.212367 -20.54248 -7.432088 -0 28.77282 -0 -6.99676 -14.31105 14.99833 0.02535851 -9.53155 6.177901 -1.786537 10.50985 -2.580311 1.983081 22.02746 5.079659 0.6755641 -16.13826 7.639475 3.679406 -18.68552 10.21235 82.42334 20.69623 -8.294438 -0 0 18.66826 -25.02204 12.29772 13.7062 0.8603078 -13.17765 -2.865135 -88.97673 23.79279 21.9838 0 0 -10.21209 -4.240388 7.181293 18.66868
34.01348 103.7052 311.097 -0.2161001 -0.7437804 1.982644 2.311268 -9.637844 4.409014 -0 59.94195 -0 8.587693 -6.471435 -9.088365 -2.787733 -15.99444 -8.102197 -0 26.95683 -0 -6.412355 -15.61675 14.3432 -0.1607786 -9.875667 4.872424 -1.595348 10.56718 -3.191472 1.871016 22.86522 5.219827 0.4349717 -15.45901 7.941553 3.83347 -17.99402 10.0634 83.7035 21.13663 -9.389402 -0 0 17.15103 -24.13943 12.41843 13.11385 0.7713059 -14.22348 -3.392692 -86.96389 24.58144 18.54307 0 0 -11.25633 -3.697473 7.86078 17.93591
34.99169 104.9431 316.8501 -0.1440998 -0.5201484 3.523868 2.812205 -16.94503 4.523361 -0 58.26029 -0 7.64887 -6.285645 -10.33698 -3.274085 -11.36517 -8.744129 -0 24.36584 -0 -6.057904 -16.65665 13.57317 -0.4692657 -10.28712 3.284463 -1.192723 10.63068 -4.393063 1.878673 23.60865 5.281736 0.271922 -14.76929 8.22808 3.521576 -16.94786 9.513638 85.14985 21.41468 -10.99532 -0 0 15.66203 -23.20016 12.4059 12.46371 0.9226526 -15.34922 -4.031895 -84.78116 25.29011 14.5902 0 0 -12.74657 -3.083398 8.605013 17.00523
35.82783 105.5325 322.203 -0.07718521 -0.292802 5.080952 2.554458 -22.1965 3.880652 -0 51.92062 -0 6.420695 -6.289958 -11.39597 -3.445206 -6.818345 -9.192323 -0 21.67793 -0 -5.806643 -17.78692 12.67405 -0.8850501 -10.30169 2.003209 -0.6748572 10.46205 -5.557304 2.081182 24.1885 5.176939 0.2336793 -14.12439 8.436193 2.93298 -16.49417 9.008033 85.8975 21.64674 -12.22228 -0 0 14.44738 -22.42255 12.31989 11.92318 1.263725 -16.35809 -4.610107 -82.52015 25.80714 10.56478 0 0 -14.51581 -2.408149 9.330428 15.80509
36.53141 105.3766 327.7834 0.004720049 0.0192645 7.205922 1.494314 -26.40861 3.964332 -0 43.73697 -0 4.954336 -6.086194 -12.03607 -3.329554 -2.609845 -9.477898 -0 19.5236 -0 -5.595753 -19.17002 11.64919 -1.576802 -10.15236 0.6902669 0.02493774 10.06828 -6.944232 2.404216 24.41246 4.940433 0.2798879 -13.72484 8.542914 2.343231 -15.63838 8.322155 86.79921 21.771 -13.89087 -0 0 12.83584 -21.51569 12.1643 11.1395 1.857817 -17.404 -5.14123 -80.08885 26.15157 6.528767 0 0 -16.50857 -1.605099 10.08107 14.36665
37.26169 104.5348 333.513 0.06286709 0.2730525 8.923807 0.2116404 -30.40306 3.304727 -0 34.21296 -0 3.295369 -6.370056 -13.18803 -3.088558 1.422658 -9.468375 -0 18.16173 -0 -5.445605 -20.7755 10.67587 -2.157077 -9.41586 -0.2943144 0.6102671 9.592404 -8.070601 2.787921 24.54225 4.564809 0.3993036 -13.46583 8.489169 1.82873 -14.63704 7.716001 87.73661 21.84396 -15.65958 -0 0 10.75963 -20.38829 11.98021 10.0438 2.377752 -18.57635 -5.366631 -77.81148 26.2637 2.673069 0 0 -18.64955 -0.583374 10.82826 12.8572
37.89109 103.3331 339.4162 0.09024737 0.4046214 9.812396 -0.468421 -33.02201 2.24363 -0 25.33538 -0 1.243945 -7.49744 -13.81235 -2.75889 5.058379 -9.3178 -0 17.96495 -0 -5.475126 -22.21863 9.949519 -2.232622 -9.24979 -0.7422006 1.10952 8.734264 -8.597544 3.038368 24.3695 4.498854 0.4372507 -13.654 8.704661 1.690996 -13.71178 7.452637 88.41991 21.96631 -17.26739 -0 0 8.44117 -19.21642 11.81515 8.873761 2.52607 -19.58969 -5.545908 -75.76392 26.19164 -0.4203715 0 0 -20.33733 0.5327426 11.53445 11.31755
38.20409 102.1362 344.5723 0.1015373 0.4606731 10.19166 -0.1710687 -34.57555 1.606129 -0 18.97695 -0 -0.9194856 -9.139347 -13.86913 -2.367964 7.713514 -9.023105 -0 18.98952 -0 -5.772952 -22.98556 9.518353 -2.212157 -8.38253 -0.6961106 1.383899 8.308661 -8.421165 3.265633 24.48645 4.256649 0.5153171 -13.72106 8.656087 1.736827 -13.23017 7.619619 89.01284 22.11868 -18.24906 -0 0 6.330347 -18.06682 11.66585 7.765762 2.661684 -20.82723 -5.52119 -73.74252 25.97874 -3.515351 0 0 -21.79741 1.661387 12.1863 9.829389
38.52961 101.145 350.7423 0.1043662 0.4739572 10.2826 0.4578836 -34.55469 1.264846 -0 17.31835 -0 -2.9131 -9.949564 -14.22933 -1.963822 9.987883 -8.891345 -0 21.71674 -0 -6.451624 -22.45608 9.396609 -2.107727 -8.300078 -0.6023529 1.511342 8.080141 -8.1267 3.432121 24.73319 3.92613 0.6033476 -13.75861 8.418063 1.915399 -12.85287 7.69741 89.676 22.23483 -18.97569 -0 0 4.51603 -16.82729 11.56214 6.660097 2.734109 -21.47353 -5.081426 -72.74022 25.82378 -5.156258 0 0 -22.57827 2.661122 12.73963 8.578942
38.80205 100.5737 357.656 0.1055768 0.4792992 10.31941 1.901534 -33.06166 2.019376 -0 19.59842 -0 -4.660785 -9.991597 -14.24758 -1.612266 11.32356 -9.028478 -0 26.50908 -0 -7.501312 -20.15988 9.730914 -2.140292 -9.124807 -0.7500278 1.587043 8.141155 -8.149371 3.591695 24.90428 3.486501 0.7174061 -13.92116 8.010915 1.938951 -12.21901 7.530754 90.42983 22.2555 -19.73321 -0 0 2.992667 -15.6173 11.44992 5.669537 2.924705 -21.18071 -4.496003 -72.78035 25.85344 -5.186892 0 0 -22.63282 3.456534 13.21089 7.628562
39.15289 100.3368 365.5009 0.1283986 0.6030518 11.15133 3.195628 -31.35513 3.40498 -0 22.9692 -0 -6.083949 -9.704781 -14.20865 -1.264513 11.37813 -9.05454 -0 33.5466 -0 -8.696306 -16.23324 10.70708 -2.050539 -10.81201 -0.867593 1.556161 8.3957 -8.295082 3.449277 25.35144 3.262488 0.6877172 -13.7692 7.610453 1.875133 -11.81836 7.197029 90.84639 22.24084 -20.10787 -0 0 2.198751 -14.59217 11.28725 4.993035 2.905433 -20.23872 -3.989131 -74.07929 26.186 -3.914553 0 0 -22.03545 3.924169 13.62464 7.009614
39.41188 100.7337 372.6764 0.1138118 0.5221055 10.60738 4.265619 -28.51998 4.068613 -0 25.62155 -0 -7.506144 -10.29994 -14.14781 -1.187867 8.361786 -8.681555 -0 42.58722 -0 -9.470647 -12.38809 12.70463 -1.8273 -11.74106 -0.3603958 1.7072 8.925344 -8.137644 3.171651 25.86987 3.137921 0.6044377 -13.6877 7.211159 2.073669 -11.56236 7.050509 90.88322 22.17711 -20.19327 -0 0 1.905804 -14.05575 10.98655 4.674756 2.706825 -19.41029 -3.634367 -75.88603 26.59309 -2.023523 0 0 -20.78325 4.074111 14.00339 6.714791
39.52702 101.3883 379.1672 0.0779861 0.3401274 9.38108 5.269244 -25.6186 3.979025 -0 26.1236 -0 -8.813778 -11.64011 -13.87101 -1.102035 1.840802 -8.314669 -0 51.88444 -0 -9.23675 -10.09969 15.45208 -1.538121 -12.10764 0.7753477 1.964953 9.16436 -7.592596 3.095442 25.91806 3.208732 0.611242 -14.04386 7.234991 2.325465 -11.30202 7.194924 90.57591 22.14766 -20.09279 -0 0 1.571464 -13.77824 10.62425 4.378278 2.179467 -18.76376 -3.650351 -78.073 27.01331 0.3306235 0 0 -18.88937 3.892275 14.33371 6.744301
39.65726 102.4103 384.7047 0.06265651 0.2681714 8.893804 5.747829 -21.56001 3.442074 -0 25.23523 -0 -9.846678 -12.98724 -13.27055 -1.687631 -3.880756 -7.30875 -0 59.7839 -0 -9.24502 -8.173976 18.13027 -1.248049 -11.60973 2.032353 2.144732 9.093019 -6.873906 3.187641 26.1264 3.025814 0.729295 -14.32658 7.075555 2.821727 -12.39869 7.966823 89.3902 22.29439 -18.44405 -0 0 2.391424 -13.7641 10.25426 4.268064 1.401694 -18.45859 -4.002483 -80.59395 27.37543 2.899877 0 0 -16.63118 3.457664 14.5927 7.029905
